<mxfile host="app.diagrams.net" modified="2023-10-12T03:39:04.833Z" agent="Mozilla/5.0 (Macintosh; Intel Mac OS X 10_15_7) AppleWebKit/605.1.15 (KHTML, like Gecko) Version/17.0 Safari/605.1.15" version="22.0.4" etag="nUyx5ri3Egah2dv5PJB7" type="github">
  <diagram name="Page-1" id="SwbgwYxHLBt87PNoaGk3">
    <mxGraphModel>
      <root>
        <mxCell id="0" />
        <mxCell id="1" parent="0" />
      </root>
    </mxGraphModel>
  </diagram>
</mxfile>
